<mxfile host="app.diagrams.net" modified="2021-08-09T16:35:30.172Z" agent="5.0 (Windows)" etag="j0861ltqV7RflFazoGdO" version="14.9.5" type="github">
  <diagram name="Page-1" id="c7558073-3199-34d8-9f00-42111426c3f3">
    <mxGraphModel dx="868" dy="468" grid="0" gridSize="10" guides="1" tooltips="1" connect="1" arrows="1" fold="1" page="1" pageScale="1" pageWidth="826" pageHeight="1169" background="none" math="0" shadow="0">
      <root>
        <mxCell id="0" />
        <mxCell id="1" parent="0" />
        <mxCell id="rSemyur9JyAT2Q-tymHw-96" value="&lt;div&gt;&lt;font style=&quot;font-size: 12px&quot;&gt;&lt;b&gt;array = [ ]&lt;/b&gt;&lt;/font&gt;&lt;/div&gt;&lt;div&gt;&lt;font style=&quot;font-size: 12px&quot;&gt;&lt;b&gt;n = array.length&lt;br&gt;&lt;/b&gt;&lt;/font&gt;&lt;/div&gt;" style="shape=parallelogram;perimeter=parallelogramPerimeter;whiteSpace=wrap;html=1;fixedSize=1;labelBackgroundColor=none;fontColor=#ffffff;fillColor=#1ba1e2;" vertex="1" parent="1">
          <mxGeometry x="229" y="170" width="120" height="42" as="geometry" />
        </mxCell>
        <mxCell id="rSemyur9JyAT2Q-tymHw-97" value="" style="endArrow=classic;html=1;fontColor=#ffffff;exitX=0.5;exitY=1;exitDx=0;exitDy=0;entryX=0.5;entryY=0;entryDx=0;entryDy=0;" edge="1" parent="1" source="rSemyur9JyAT2Q-tymHw-96" target="rSemyur9JyAT2Q-tymHw-99">
          <mxGeometry width="50" height="50" relative="1" as="geometry">
            <mxPoint x="387" y="350" as="sourcePoint" />
            <mxPoint x="289" y="265" as="targetPoint" />
          </mxGeometry>
        </mxCell>
        <mxCell id="rSemyur9JyAT2Q-tymHw-107" value="" style="edgeStyle=orthogonalEdgeStyle;rounded=0;orthogonalLoop=1;jettySize=auto;html=1;fontColor=#ffffff;" edge="1" parent="1" source="rSemyur9JyAT2Q-tymHw-99" target="rSemyur9JyAT2Q-tymHw-104">
          <mxGeometry relative="1" as="geometry" />
        </mxCell>
        <mxCell id="rSemyur9JyAT2Q-tymHw-99" value="&lt;font style=&quot;font-size: 20px&quot; face=&quot;Verdana&quot;&gt;&lt;b&gt;START&lt;/b&gt;&lt;/font&gt;" style="ellipse;whiteSpace=wrap;html=1;labelBackgroundColor=none;fontColor=#ffffff;fillColor=#1ba1e2;" vertex="1" parent="1">
          <mxGeometry x="238" y="278" width="102" height="48" as="geometry" />
        </mxCell>
        <mxCell id="rSemyur9JyAT2Q-tymHw-110" value="" style="edgeStyle=orthogonalEdgeStyle;rounded=0;orthogonalLoop=1;jettySize=auto;html=1;fontColor=#ffffff;" edge="1" parent="1" source="rSemyur9JyAT2Q-tymHw-104" target="rSemyur9JyAT2Q-tymHw-108">
          <mxGeometry relative="1" as="geometry" />
        </mxCell>
        <mxCell id="rSemyur9JyAT2Q-tymHw-104" value="&lt;font style=&quot;font-size: 20px&quot;&gt;&lt;b&gt;i=0&lt;/b&gt;&lt;/font&gt;" style="rounded=0;whiteSpace=wrap;html=1;labelBackgroundColor=none;fontColor=#ffffff;fillColor=#1ba1e2;" vertex="1" parent="1">
          <mxGeometry x="264" y="389" width="49" height="37" as="geometry" />
        </mxCell>
        <mxCell id="rSemyur9JyAT2Q-tymHw-112" value="" style="edgeStyle=orthogonalEdgeStyle;rounded=0;orthogonalLoop=1;jettySize=auto;html=1;fontColor=#ffffff;" edge="1" parent="1" source="rSemyur9JyAT2Q-tymHw-108" target="rSemyur9JyAT2Q-tymHw-111">
          <mxGeometry relative="1" as="geometry" />
        </mxCell>
        <mxCell id="rSemyur9JyAT2Q-tymHw-108" value="&lt;b&gt;&lt;font style=&quot;font-size: 20px&quot;&gt;i&amp;lt;n&lt;/font&gt;&lt;/b&gt;" style="rhombus;whiteSpace=wrap;html=1;labelBackgroundColor=none;fontColor=#ffffff;fillColor=#1ba1e2;" vertex="1" parent="1">
          <mxGeometry x="244.5" y="461" width="89" height="43" as="geometry" />
        </mxCell>
        <mxCell id="rSemyur9JyAT2Q-tymHw-118" value="" style="edgeStyle=orthogonalEdgeStyle;rounded=0;orthogonalLoop=1;jettySize=auto;html=1;fontColor=#ffffff;" edge="1" parent="1" source="rSemyur9JyAT2Q-tymHw-111" target="rSemyur9JyAT2Q-tymHw-113">
          <mxGeometry relative="1" as="geometry" />
        </mxCell>
        <mxCell id="rSemyur9JyAT2Q-tymHw-120" value="" style="edgeStyle=orthogonalEdgeStyle;rounded=0;orthogonalLoop=1;jettySize=auto;html=1;fontColor=#ffffff;" edge="1" parent="1" source="rSemyur9JyAT2Q-tymHw-111" target="rSemyur9JyAT2Q-tymHw-119">
          <mxGeometry relative="1" as="geometry" />
        </mxCell>
        <mxCell id="rSemyur9JyAT2Q-tymHw-111" value="&lt;b&gt;&lt;font style=&quot;font-size: 14px&quot;&gt;array[i]==target&lt;/font&gt;&lt;/b&gt;" style="rhombus;whiteSpace=wrap;html=1;labelBackgroundColor=none;fontColor=#ffffff;fillColor=#1ba1e2;" vertex="1" parent="1">
          <mxGeometry x="220" y="536" width="137" height="69" as="geometry" />
        </mxCell>
        <mxCell id="rSemyur9JyAT2Q-tymHw-121" value="" style="edgeStyle=orthogonalEdgeStyle;rounded=0;orthogonalLoop=1;jettySize=auto;html=1;fontColor=#ffffff;" edge="1" parent="1" source="rSemyur9JyAT2Q-tymHw-113" target="rSemyur9JyAT2Q-tymHw-119">
          <mxGeometry relative="1" as="geometry" />
        </mxCell>
        <mxCell id="rSemyur9JyAT2Q-tymHw-113" value="&lt;b&gt;&lt;font style=&quot;font-size: 14px&quot;&gt;return i&lt;br&gt;&lt;/font&gt;&lt;/b&gt;" style="shape=parallelogram;perimeter=parallelogramPerimeter;whiteSpace=wrap;html=1;fixedSize=1;labelBackgroundColor=none;fontColor=#ffffff;fillColor=#1ba1e2;" vertex="1" parent="1">
          <mxGeometry x="381" y="609" width="88" height="34" as="geometry" />
        </mxCell>
        <mxCell id="rSemyur9JyAT2Q-tymHw-119" value="&lt;b&gt;END IF&lt;br&gt;&lt;/b&gt;" style="ellipse;whiteSpace=wrap;html=1;labelBackgroundColor=none;fontColor=#ffffff;fillColor=#1ba1e2;" vertex="1" parent="1">
          <mxGeometry x="252.88" y="675" width="72.25" height="34" as="geometry" />
        </mxCell>
        <mxCell id="rSemyur9JyAT2Q-tymHw-122" value="&lt;font style=&quot;font-size: 15px&quot;&gt;&lt;b&gt;i++&lt;/b&gt;&lt;/font&gt;" style="rounded=0;whiteSpace=wrap;html=1;labelBackgroundColor=none;fontColor=#ffffff;fillColor=#1ba1e2;" vertex="1" parent="1">
          <mxGeometry x="555" y="581" width="49" height="37" as="geometry" />
        </mxCell>
        <mxCell id="rSemyur9JyAT2Q-tymHw-125" value="" style="edgeStyle=segmentEdgeStyle;endArrow=classic;html=1;fontColor=#ffffff;entryX=1;entryY=0.5;entryDx=0;entryDy=0;exitX=0.5;exitY=0;exitDx=0;exitDy=0;" edge="1" parent="1" source="rSemyur9JyAT2Q-tymHw-122" target="rSemyur9JyAT2Q-tymHw-104">
          <mxGeometry width="50" height="50" relative="1" as="geometry">
            <mxPoint x="477" y="454" as="sourcePoint" />
            <mxPoint x="527" y="404" as="targetPoint" />
            <Array as="points">
              <mxPoint x="579" y="408" />
            </Array>
          </mxGeometry>
        </mxCell>
        <mxCell id="rSemyur9JyAT2Q-tymHw-128" value="" style="edgeStyle=segmentEdgeStyle;endArrow=classic;html=1;fontColor=#ffffff;entryX=0.5;entryY=1;entryDx=0;entryDy=0;exitX=1;exitY=0.5;exitDx=0;exitDy=0;" edge="1" parent="1" source="rSemyur9JyAT2Q-tymHw-119" target="rSemyur9JyAT2Q-tymHw-122">
          <mxGeometry width="50" height="50" relative="1" as="geometry">
            <mxPoint x="531" y="700" as="sourcePoint" />
            <mxPoint x="581" y="650" as="targetPoint" />
          </mxGeometry>
        </mxCell>
        <mxCell id="rSemyur9JyAT2Q-tymHw-129" value="&lt;font style=&quot;font-size: 13px&quot;&gt;&lt;b&gt;EXIT F LOOP&lt;/b&gt;&lt;/font&gt;" style="ellipse;whiteSpace=wrap;html=1;labelBackgroundColor=none;fontColor=#ffffff;fillColor=#1ba1e2;" vertex="1" parent="1">
          <mxGeometry x="298" y="761" width="127.99" height="40.47" as="geometry" />
        </mxCell>
        <mxCell id="rSemyur9JyAT2Q-tymHw-130" value="" style="edgeStyle=segmentEdgeStyle;endArrow=classic;html=1;fontColor=#ffffff;entryX=0;entryY=0.5;entryDx=0;entryDy=0;" edge="1" parent="1" target="rSemyur9JyAT2Q-tymHw-129">
          <mxGeometry width="50" height="50" relative="1" as="geometry">
            <mxPoint x="263" y="407" as="sourcePoint" />
            <mxPoint x="294" y="763" as="targetPoint" />
            <Array as="points">
              <mxPoint x="141" y="407" />
              <mxPoint x="141" y="783" />
              <mxPoint x="174" y="783" />
              <mxPoint x="174" y="782" />
              <mxPoint x="283" y="782" />
            </Array>
          </mxGeometry>
        </mxCell>
      </root>
    </mxGraphModel>
  </diagram>
</mxfile>
